<?xml version="1.0" standalone="no"?>
<!DOCTYPE svg PUBLIC "-//W3C//DTD SVG 20010904//EN"
 "http://www.w3.org/TR/2001/REC-SVG-20010904/DTD/svg10.dtd">
<svg version="1.0" xmlns="http://www.w3.org/2000/svg"
 width="544.000000pt" height="458.000000pt" viewBox="0 0 544.000000 458.000000"
 preserveAspectRatio="xMidYMid meet">
<metadata>
Created by potrace 1.16, written by Peter Selinger 2001-2019
</metadata>
<g transform="translate(0.000000,458.000000) scale(0.100000,-0.100000)"
fill="#000000" stroke="none">
<path d="M3065 4481 c-105 -27 -177 -107 -205 -228 -30 -132 51 -277 183 -323
73 -26 137 -25 214 2 l63 22 22 -20 c13 -11 72 -63 133 -115 60 -52 119 -104
130 -115 11 -12 82 -75 158 -140 271 -232 403 -346 517 -442 286 -241 396
-393 456 -629 20 -81 24 -119 24 -247 0 -102 -5 -172 -16 -216 -9 -36 -17 -73
-19 -83 -17 -80 -74 -194 -141 -282 -98 -129 -207 -217 -329 -266 -52 -21 -76
-24 -180 -24 -107 1 -126 3 -175 26 -72 33 -140 77 -140 89 0 6 25 10 56 10
63 0 157 38 175 71 18 35 -5 49 -78 49 -36 0 -91 7 -122 15 -63 16 -220 76
-263 100 -14 8 -40 15 -57 15 -39 0 -41 -22 -8 -106 35 -88 77 -157 135 -219
53 -57 172 -145 195 -145 7 0 22 -7 34 -15 27 -19 190 -55 248 -55 63 0 188
27 259 56 240 97 436 326 530 620 70 217 74 493 10 695 -40 126 -140 321 -184
359 -3 3 -23 27 -45 53 -54 68 -303 289 -937 836 -222 191 -281 251 -273 275
17 53 17 136 0 190 -37 116 -132 185 -264 192 -42 2 -89 0 -106 -5z m156 -167
c41 -20 59 -57 59 -118 0 -43 -5 -60 -25 -84 -30 -36 -85 -51 -139 -40 -49 10
-62 21 -87 71 -27 53 -19 104 25 146 52 50 102 58 167 25z"/>
<path d="M1935 3898 c-156 -13 -330 -60 -458 -124 -137 -69 -242 -154 -235
-190 2 -12 32 -26 104 -50 158 -50 317 -139 311 -173 -1 -8 -54 -41 -116 -73
-229 -117 -381 -236 -532 -415 -367 -436 -443 -1066 -189 -1573 112 -223 275
-425 466 -578 215 -172 308 -262 400 -386 52 -71 88 -91 109 -62 19 25 61 151
80 239 22 97 22 239 0 331 -9 38 -14 74 -11 81 2 7 22 16 43 19 21 4 81 30
133 59 193 103 244 125 329 142 48 9 102 20 121 24 26 5 36 12 38 30 3 17 -14
40 -73 96 -83 80 -162 127 -291 172 -78 27 -83 28 -324 28 -213 0 -253 3 -304
19 -55 18 -60 23 -82 70 -28 60 -32 145 -9 220 38 125 152 246 231 246 63 0
349 -30 479 -50 66 -10 146 -22 178 -26 31 -3 59 -10 62 -14 3 -4 -31 -51 -75
-103 -120 -141 -113 -167 55 -213 132 -36 289 -39 377 -6 103 38 196 113 325
265 28 33 36 37 80 37 326 1 660 42 868 106 334 103 544 234 591 371 16 45 17
58 6 100 -27 103 -62 153 -207 298 -141 142 -255 231 -436 342 -93 56 -299
159 -379 188 -199 72 -369 120 -530 150 l-95 17 -81 77 c-193 183 -420 286
-674 306 -153 12 -174 12 -285 3z m653 -517 c8 0 -25 -42 -72 -92 -47 -51 -86
-97 -86 -103 0 -6 -36 25 -80 69 -44 44 -80 82 -80 86 0 8 44 16 165 33 80 11
106 12 153 7z m472 -24 c58 -12 105 -27 105 -32 0 -6 -30 -39 -67 -74 l-67
-63 -29 33 c-16 19 -52 62 -81 97 l-52 62 43 0 c24 -1 90 -11 148 -23z m-218
-138 c45 -55 86 -106 90 -112 5 -11 -172 -237 -192 -245 -7 -3 -222 212 -228
227 -3 9 226 231 238 231 5 0 46 -45 92 -101z m-597 -25 c39 -48 74 -92 79
-98 6 -8 -14 -41 -58 -97 -36 -46 -78 -101 -94 -121 -15 -20 -29 -37 -32 -38
-3 0 -50 47 -104 105 l-98 106 27 34 c40 53 185 195 198 195 7 0 44 -39 82
-86z m1207 53 c207 -70 416 -182 637 -340 94 -68 335 -301 329 -319 -3 -7 -40
-31 -84 -53 -143 -73 -237 -138 -241 -167 -4 -32 31 -78 60 -78 12 0 60 23
106 50 46 28 86 50 88 50 2 0 28 16 58 37 31 20 58 33 61 30 3 -3 -13 -26 -36
-50 -41 -45 -137 -109 -215 -142 -99 -43 -275 -106 -310 -111 -11 -2 -47 -8
-80 -14 -211 -37 -418 75 -523 281 -25 51 -27 62 -27 189 0 131 1 137 32 200
18 36 58 92 91 127 58 61 59 63 52 104 -8 42 -22 59 -51 59 -8 0 -52 -38 -97
-84 -63 -65 -90 -101 -117 -160 -20 -41 -38 -89 -42 -106 -3 -17 -9 -32 -13
-35 -10 -6 -289 20 -296 28 -33 32 472 542 526 532 11 -2 53 -15 92 -28z
m-1754 -150 l61 -62 -33 -43 c-19 -23 -56 -76 -82 -118 l-48 -75 -79 80 c-78
78 -79 80 -63 103 20 29 167 178 175 178 4 0 34 -28 69 -63z m803 -201 c92
-114 119 -149 116 -151 -1 -1 -84 0 -185 3 -148 4 -182 7 -180 18 5 24 162
215 174 212 6 -2 40 -39 75 -82z m-486 -130 c10 -15 16 -29 13 -31 -9 -9 -197
-26 -261 -23 l-68 3 33 52 c18 28 53 80 77 114 l44 63 72 -76 c40 -41 81 -87
90 -102z m-805 85 c-26 -38 -99 -194 -130 -279 -19 -53 -30 -68 -64 -89 -23
-14 -58 -41 -78 -61 -21 -20 -38 -30 -38 -23 0 24 89 201 138 273 27 40 80
106 117 146 68 73 96 90 55 33z m224 -81 c68 -71 79 -100 37 -100 -11 0 -40
-7 -63 -14 -24 -8 -57 -17 -74 -20 -17 -3 -47 -13 -67 -21 -21 -8 -37 -13 -37
-10 0 21 119 235 131 235 3 0 36 -32 73 -70z m-42 -766 c4 -3 -11 -38 -32 -77
-28 -52 -42 -95 -52 -154 l-12 -82 -28 43 c-28 45 -58 144 -58 189 0 20 9 30
46 48 62 30 125 45 136 33z"/>
<path d="M3844 2801 c-35 -21 -54 -65 -54 -122 0 -28 8 -47 30 -73 58 -66 132
-67 197 -4 29 28 33 39 33 81 0 86 -49 137 -132 137 -25 0 -56 -8 -74 -19z"/>
<path d="M3129 1316 c-2 -2 -24 -7 -49 -10 -24 -3 -85 -26 -135 -50 -84 -41
-140 -80 -401 -276 -121 -90 -273 -170 -374 -194 -104 -26 -120 -33 -120 -55
0 -27 16 -36 98 -56 102 -24 241 -17 336 19 75 28 236 131 301 192 166 155
271 232 350 257 54 16 115 29 115 23 0 -2 -33 -23 -72 -47 -54 -32 -120 -90
-258 -228 -112 -113 -214 -205 -257 -234 -148 -98 -294 -147 -442 -147 -61 0
-91 -10 -91 -31 0 -16 79 -65 139 -87 46 -17 96 -25 167 -29 92 -5 109 -3 185
22 46 15 121 47 165 71 80 43 179 74 240 74 35 0 164 -40 227 -71 55 -26 156
-49 218 -49 27 0 49 -4 49 -9 0 -4 -30 -16 -66 -26 -85 -23 -181 -16 -293 20
-116 37 -206 33 -306 -15 -38 -18 -81 -41 -95 -50 -14 -9 -47 -25 -75 -35 -71
-26 -82 -38 -53 -57 29 -19 161 -62 258 -85 113 -26 347 -24 460 5 230 58 378
150 655 402 55 50 120 103 145 118 25 14 47 29 50 33 9 12 151 67 205 79 28 6
88 10 135 8 76 -3 85 -1 88 15 5 23 -38 69 -93 101 -79 46 -142 60 -260 59
-94 -1 -120 -5 -175 -27 -75 -30 -151 -75 -270 -162 -47 -34 -100 -69 -119
-78 -158 -82 -337 -52 -406 69 -47 82 -43 142 14 203 68 75 171 77 260 7 36
-29 47 -33 58 -23 21 17 8 100 -23 155 -53 89 -176 172 -285 193 -50 10 -191
14 -200 6z"/>
</g>
</svg>
